<?xml version="1.0" encoding="UTF-8"?>
<svg xmlns="http://www.w3.org/2000/svg" width="1360" height="1060"
     viewBox="0 0 1360 1060" font-family="Segoe UI, Arial, sans-serif"
     style="background:#f0f4f8">

<defs>
  <marker id="ab" markerWidth="8" markerHeight="8" refX="7" refY="3" orient="auto"><path d="M0,0 L0,6 L8,3z" fill="#1a3a5c"/></marker>
  <marker id="ag" markerWidth="8" markerHeight="8" refX="7" refY="3" orient="auto"><path d="M0,0 L0,6 L8,3z" fill="#0e6655"/></marker>
  <marker id="ar" markerWidth="8" markerHeight="8" refX="7" refY="3" orient="auto"><path d="M0,0 L0,6 L8,3z" fill="#c0392b"/></marker>
  <marker id="ao" markerWidth="8" markerHeight="8" refX="7" refY="3" orient="auto"><path d="M0,0 L0,6 L8,3z" fill="#e67e22"/></marker>
</defs>

<!-- ── TITLE ─────────────────────────────────────────────────────── -->
<rect x="0" y="0" width="1360" height="50" fill="#1a3a5c" rx="6"/>
<text x="680" y="32" text-anchor="middle" fill="white" font-size="17" font-weight="bold">
  DIAGRAMA DE FLUJO CONVERSACIONAL — ChatBot Médico
</text>

<!-- ══════════════════════════════════════════════════════════
     START + BIENVENIDA
══════════════════════════════════════════════════════════ -->
<circle cx="680" cy="90" r="18" fill="#1a3a5c"/>
<text x="680" y="118" text-anchor="middle" fill="#1a3a5c" font-size="10" font-weight="bold">INICIO</text>

<line x1="680" y1="108" x2="680" y2="128" stroke="#1a3a5c" stroke-width="2" marker-end="url(#ab)"/>

<rect x="540" y="130" width="280" height="46" rx="8" fill="#1a3a5c"/>
<text x="680" y="149" text-anchor="middle" fill="white" font-size="10" font-weight="bold">👋 Bienvenida</text>
<text x="680" y="165" text-anchor="middle" fill="#aed6f1" font-size="9">"¿Quién eres? 1) Paciente  2) Médico"</text>

<line x1="680" y1="176" x2="680" y2="196" stroke="#1a3a5c" stroke-width="2" marker-end="url(#ab)"/>

<!-- Gateway: Tipo usuario -->
<polygon points="680,198 706,218 680,238 654,218" fill="white" stroke="#1a3a5c" stroke-width="2.5"/>
<text x="680" y="222" text-anchor="middle" fill="#1a3a5c" font-size="9" font-weight="bold">Tipo</text>
<text x="630" y="255" fill="#0e6655" font-size="9" font-weight="bold">1 = Paciente</text>
<text x="706" y="255" fill="#c0392b" font-size="9" font-weight="bold">2 = Médico</text>

<!-- ══════════════════════════════════════════════════════════
     RAMA PACIENTE (izquierda, centrada en x=310)
══════════════════════════════════════════════════════════ -->

<!-- Flecha a paciente -->
<line x1="654" y1="218" x2="310" y2="218" stroke="#0e6655" stroke-width="2"/>
<line x1="310" y1="218" x2="310" y2="268" stroke="#0e6655" stroke-width="2" marker-end="url(#ag)"/>

<!-- Box: nombre paciente -->
<rect x="190" y="270" width="240" height="40" rx="7" fill="#e8f6f3" stroke="#0e6655" stroke-width="2"/>
<text x="310" y="287" text-anchor="middle" fill="#0e6655" font-size="10" font-weight="bold">Ingresa nombre</text>
<text x="310" y="301" text-anchor="middle" fill="#555" font-size="8">[getOrCreatePatient — crea o recupera]</text>

<line x1="310" y1="310" x2="310" y2="330" stroke="#0e6655" stroke-width="2" marker-end="url(#ag)"/>

<!-- Menú paciente -->
<rect x="160" y="332" width="300" height="44" rx="8" fill="#0e6655"/>
<text x="310" y="351" text-anchor="middle" fill="white" font-size="10" font-weight="bold">MENÚ PACIENTE</text>
<text x="310" y="366" text-anchor="middle" fill="#a9dfbf" font-size="8">1) Registrar  2) Ver  3) Eliminar  4) Cerrar sesión</text>

<line x1="310" y1="376" x2="310" y2="396" stroke="#0e6655" stroke-width="2" marker-end="url(#ag)"/>

<!-- Gateway menú paciente -->
<polygon points="310,398 334,418 310,438 286,418" fill="white" stroke="#0e6655" stroke-width="2.5"/>
<text x="310" y="422" text-anchor="middle" fill="#0e6655" font-size="9">opción</text>

<!-- ── Opción 1: Registro signos ── -->
<line x1="286" y1="418" x2="110" y2="418" stroke="#0e6655" stroke-width="1.8"/>
<line x1="110" y1="418" x2="110" y2="468" stroke="#0e6655" stroke-width="1.8" marker-end="url(#ag)"/>
<text x="196" y="412" text-anchor="middle" fill="#0e6655" font-size="8" font-weight="bold">1</text>

<!-- ── Opción 2: Ver registros ── -->
<line x1="310" y1="438" x2="310" y2="468" stroke="#0e6655" stroke-width="1.8" marker-end="url(#ag)"/>
<text x="320" y="456" fill="#0e6655" font-size="8" font-weight="bold">2</text>

<!-- ── Opción 3: Eliminar ── -->
<line x1="334" y1="418" x2="490" y2="418" stroke="#0e6655" stroke-width="1.8"/>
<line x1="490" y1="418" x2="490" y2="468" stroke="#0e6655" stroke-width="1.8" marker-end="url(#ag)"/>
<text x="415" y="412" text-anchor="middle" fill="#0e6655" font-size="8" font-weight="bold">3</text>

<!-- Opción 4 -->
<text x="310" y="462" text-anchor="middle" fill="#c0392b" font-size="8">← 4: Cierra sesión → INICIO</text>

<!-- ─ BLOQUE REGISTRO SIGNOS (x=28 a x=200, y=470 a y=820) ─ -->
<rect x="28" y="470" width="172" height="350" rx="7" fill="#d5f5e3" stroke="#0e6655" stroke-width="2"/>
<text x="114" y="488" text-anchor="middle" fill="#0e6655" font-size="9" font-weight="bold">REGISTRO SIGNOS VITALES</text>

<!-- Sistólica -->
<rect x="38" y="495" width="152" height="30" rx="5" fill="white" stroke="#0e6655" stroke-width="1.5"/>
<text x="114" y="507" text-anchor="middle" fill="#0e6655" font-size="8.5" font-weight="bold">Presión Sistólica</text>
<text x="114" y="519" text-anchor="middle" fill="#555" font-size="7.5">70 – 250 mmHg</text>

<line x1="114" y1="525" x2="114" y2="535" stroke="#0e6655" stroke-width="1.4" marker-end="url(#ag)"/>

<!-- Diastólica -->
<rect x="38" y="537" width="152" height="30" rx="5" fill="white" stroke="#0e6655" stroke-width="1.5"/>
<text x="114" y="549" text-anchor="middle" fill="#0e6655" font-size="8.5" font-weight="bold">Presión Diastólica</text>
<text x="114" y="561" text-anchor="middle" fill="#555" font-size="7.5">40 – 150 mmHg · &lt; sistólica</text>

<line x1="114" y1="567" x2="114" y2="577" stroke="#0e6655" stroke-width="1.4" marker-end="url(#ag)"/>

<!-- Frec. Cardíaca -->
<rect x="38" y="579" width="152" height="30" rx="5" fill="white" stroke="#0e6655" stroke-width="1.5"/>
<text x="114" y="591" text-anchor="middle" fill="#0e6655" font-size="8.5" font-weight="bold">Frecuencia Cardíaca</text>
<text x="114" y="603" text-anchor="middle" fill="#555" font-size="7.5">30 – 220 lpm</text>

<line x1="114" y1="609" x2="114" y2="619" stroke="#0e6655" stroke-width="1.4" marker-end="url(#ag)"/>

<!-- Gateway: ¿Temperatura? -->
<polygon points="114,621 130,637 114,653 98,637" fill="white" stroke="#e67e22" stroke-width="1.5"/>
<text x="114" y="641" text-anchor="middle" fill="#e67e22" font-size="7">¿Temp?</text>

<!-- Temperatura opcional -->
<rect x="38" y="660" width="152" height="28" rx="5" fill="white" stroke="#e67e22" stroke-width="1.5" stroke-dasharray="4,2"/>
<text x="114" y="672" text-anchor="middle" fill="#e67e22" font-size="8.5">Temperatura</text>
<text x="114" y="683" text-anchor="middle" fill="#555" font-size="7.5">34 – 42 °C (opcional)</text>

<line x1="114" y1="688" x2="114" y2="698" stroke="#e67e22" stroke-width="1.4" marker-end="url(#ao)"/>

<!-- Gateway: ¿O₂? -->
<polygon points="114,700 130,716 114,732 98,716" fill="white" stroke="#e67e22" stroke-width="1.5"/>
<text x="114" y="720" text-anchor="middle" fill="#e67e22" font-size="7">¿O₂?</text>

<!-- Saturación opcional -->
<rect x="38" y="739" width="152" height="28" rx="5" fill="white" stroke="#e67e22" stroke-width="1.5" stroke-dasharray="4,2"/>
<text x="114" y="751" text-anchor="middle" fill="#e67e22" font-size="8.5">Saturación de O₂</text>
<text x="114" y="762" text-anchor="middle" fill="#555" font-size="7.5">50 – 100 % (opcional)</text>

<line x1="114" y1="767" x2="114" y2="777" stroke="#0e6655" stroke-width="1.4" marker-end="url(#ag)"/>

<!-- Guardado -->
<rect x="44" y="779" width="140" height="24" rx="5" fill="#0e6655"/>
<text x="114" y="795" text-anchor="middle" fill="white" font-size="9" font-weight="bold">✅ Registro guardado</text>

<!-- Volver al menú paciente -->
<line x1="200" y1="791" x2="230" y2="791" stroke="#0e6655" stroke-width="1.4" stroke-dasharray="4,3"/>
<line x1="230" y1="791" x2="230" y2="354" stroke="#0e6655" stroke-width="1.4" stroke-dasharray="4,3"/>
<line x1="230" y1="354" x2="230" y2="354" stroke="none"/>
<line x1="230" y1="354" x2="160"  y2="354" stroke="#0e6655" stroke-width="1.4" stroke-dasharray="4,3" marker-end="url(#ag)"/>

<!-- ─ VER REGISTROS ─ -->
<rect x="215" y="470" width="190" height="58" rx="7" fill="#d5f5e3" stroke="#0e6655" stroke-width="2"/>
<text x="310" y="488" text-anchor="middle" fill="#0e6655" font-size="9" font-weight="bold">VER REGISTROS</text>
<text x="310" y="503" text-anchor="middle" fill="#555" font-size="8">Lista con alertas clínicas</text>
<text x="310" y="516" text-anchor="middle" fill="#555" font-size="8">y observaciones del médico</text>
<line x1="310" y1="528" x2="310" y2="548" stroke="#0e6655" stroke-width="1.4" stroke-dasharray="4,3" marker-end="url(#ag)"/>
<text x="310" y="562" text-anchor="middle" fill="#0e6655" font-size="8">← vuelve al menú</text>

<!-- ─ ELIMINAR REGISTRO ─ -->
<rect x="415" y="470" width="200" height="85" rx="7" fill="#d5f5e3" stroke="#0e6655" stroke-width="2"/>
<text x="515" y="488" text-anchor="middle" fill="#0e6655" font-size="9" font-weight="bold">ELIMINAR REGISTRO</text>
<text x="515" y="502" text-anchor="middle" fill="#555" font-size="8">Muestra lista numerada</text>
<polygon points="515,516 529,530 515,544 501,530" fill="white" stroke="#0e6655" stroke-width="1.5"/>
<text x="515" y="534" text-anchor="middle" fill="#0e6655" font-size="7">N°?</text>
<text x="515" y="556" text-anchor="middle" fill="#555" font-size="8">Elimina o "cancelar"</text>
<line x1="515" y1="555" x2="515" y2="570" stroke="#0e6655" stroke-width="1.4" stroke-dasharray="4,3"/>
<line x1="515" y1="570" x2="460" y2="570" stroke="#0e6655" stroke-width="1.4" stroke-dasharray="4,3" marker-end="url(#ag)"/>
<text x="485" y="565" fill="#0e6655" font-size="7">← menú</text>

<!-- ══════════════════════════════════════════════════════════
     RAMA MÉDICO (derecha, centrada en x=1040)
══════════════════════════════════════════════════════════ -->

<!-- Flecha a médico -->
<line x1="706" y1="218" x2="1040" y2="218" stroke="#c0392b" stroke-width="2"/>
<line x1="1040" y1="218" x2="1040" y2="268" stroke="#c0392b" stroke-width="2" marker-end="url(#ar)"/>

<!-- Box: nombre médico -->
<rect x="920" y="270" width="240" height="40" rx="7" fill="#fdf2f0" stroke="#c0392b" stroke-width="2"/>
<text x="1040" y="287" text-anchor="middle" fill="#c0392b" font-size="10" font-weight="bold">Ingresa nombre</text>
<text x="1040" y="301" text-anchor="middle" fill="#555" font-size="8">[findDoctor — nombre + contraseña]</text>

<line x1="1040" y1="310" x2="1040" y2="330" stroke="#c0392b" stroke-width="2" marker-end="url(#ar)"/>

<!-- Box: contraseña -->
<rect x="920" y="332" width="240" height="40" rx="7" fill="#fdf2f0" stroke="#c0392b" stroke-width="2"/>
<text x="1040" y="349" text-anchor="middle" fill="#c0392b" font-size="10" font-weight="bold">Ingresa contraseña</text>
<text x="1040" y="363" text-anchor="middle" fill="#555" font-size="8">Validación contra SEED_DOCTORS</text>

<line x1="1040" y1="372" x2="1040" y2="392" stroke="#c0392b" stroke-width="2" marker-end="url(#ar)"/>

<!-- Gateway: Auth? -->
<polygon points="1040,394 1064,414 1040,434 1016,414" fill="white" stroke="#c0392b" stroke-width="2.5"/>
<text x="1040" y="418" text-anchor="middle" fill="#c0392b" font-size="9">Auth?</text>

<!-- No → reintentar -->
<line x1="1064" y1="414" x2="1220" y2="414" stroke="#c0392b" stroke-width="1.5" stroke-dasharray="4,3"/>
<line x1="1220" y1="414" x2="1220" y2="320" stroke="#c0392b" stroke-width="1.5" stroke-dasharray="4,3"/>
<line x1="1220" y1="320" x2="1160" y2="320" stroke="#c0392b" stroke-width="1.5" stroke-dasharray="4,3" marker-end="url(#ar)"/>
<text x="1150" y="408" fill="#c0392b" font-size="8">No → reintentar</text>

<!-- Sí → menú -->
<line x1="1040" y1="434" x2="1040" y2="454" stroke="#c0392b" stroke-width="2" marker-end="url(#ar)"/>
<text x="1050" y="447" fill="#0e6655" font-size="8">Sí</text>

<!-- Menú médico -->
<rect x="880" y="456" width="320" height="44" rx="8" fill="#c0392b"/>
<text x="1040" y="475" text-anchor="middle" fill="white" font-size="10" font-weight="bold">MENÚ MÉDICO</text>
<text x="1040" y="490" text-anchor="middle" fill="#fadbd8" font-size="8">1) Ver pacientes  2) Ver registros  3) Observación  4) Salir</text>

<line x1="1040" y1="500" x2="1040" y2="520" stroke="#c0392b" stroke-width="2" marker-end="url(#ar)"/>

<!-- Gateway menú médico -->
<polygon points="1040,522 1064,542 1040,562 1016,542" fill="white" stroke="#c0392b" stroke-width="2.5"/>
<text x="1040" y="546" text-anchor="middle" fill="#c0392b" font-size="9">opción</text>

<!-- ── Opción 1: Listar pacientes ── -->
<line x1="1016" y1="542" x2="820" y2="542" stroke="#c0392b" stroke-width="1.8"/>
<line x1="820" y1="542" x2="820" y2="578" stroke="#c0392b" stroke-width="1.8" marker-end="url(#ar)"/>
<text x="916" y="536" text-anchor="middle" fill="#c0392b" font-size="8" font-weight="bold">1</text>
<rect x="740" y="580" width="160" height="38" rx="6" fill="#fdf2f0" stroke="#c0392b" stroke-width="1.8"/>
<text x="820" y="597" text-anchor="middle" fill="#c0392b" font-size="9" font-weight="bold">Lista Pacientes</text>
<text x="820" y="610" text-anchor="middle" fill="#555" font-size="7.5">Numerada en pantalla</text>
<line x1="820" y1="618" x2="820" y2="638" stroke="#c0392b" stroke-width="1.4" stroke-dasharray="4,3"/>
<line x1="820" y1="638" x2="880" y2="638" stroke="#c0392b" stroke-width="1.4" stroke-dasharray="4,3" marker-end="url(#ar)"/>
<text x="850" y="633" fill="#555" font-size="7">← menú</text>

<!-- ── Opción 2: Ver registros paciente ── -->
<line x1="1040" y1="562" x2="1040" y2="578" stroke="#c0392b" stroke-width="1.8" marker-end="url(#ar)"/>
<text x="1050" y="572" fill="#c0392b" font-size="8" font-weight="bold">2</text>
<rect x="960" y="580" width="160" height="38" rx="6" fill="#fdf2f0" stroke="#c0392b" stroke-width="1.8"/>
<text x="1040" y="597" text-anchor="middle" fill="#c0392b" font-size="9" font-weight="bold">Seleccionar paciente</text>
<text x="1040" y="610" text-anchor="middle" fill="#555" font-size="7.5">Ver registros completos</text>
<line x1="1040" y1="618" x2="1040" y2="638" stroke="#c0392b" stroke-width="1.4" stroke-dasharray="4,3"/>
<line x1="1040" y1="638" x2="1040" y2="650" stroke="#c0392b" stroke-width="1.4" stroke-dasharray="4,3" marker-end="url(#ar)"/>
<text x="1050" y="650" fill="#555" font-size="7">← menú</text>

<!-- ── Opción 3: Agregar observación ── -->
<line x1="1064" y1="542" x2="1250" y2="542" stroke="#c0392b" stroke-width="1.8"/>
<line x1="1250" y1="542" x2="1250" y2="578" stroke="#c0392b" stroke-width="1.8" marker-end="url(#ar)"/>
<text x="1156" y="536" text-anchor="middle" fill="#c0392b" font-size="8" font-weight="bold">3</text>

<rect x="1168" y="580" width="164" height="36" rx="6" fill="#fdf2f0" stroke="#c0392b" stroke-width="1.8"/>
<text x="1250" y="596" text-anchor="middle" fill="#c0392b" font-size="9" font-weight="bold">Seleccionar paciente</text>
<text x="1250" y="609" text-anchor="middle" fill="#555" font-size="7.5">→ ver sus registros</text>

<line x1="1250" y1="616" x2="1250" y2="634" stroke="#c0392b" stroke-width="1.8" marker-end="url(#ar)"/>

<rect x="1168" y="636" width="164" height="34" rx="6" fill="#fdf2f0" stroke="#c0392b" stroke-width="1.8"/>
<text x="1250" y="651" text-anchor="middle" fill="#c0392b" font-size="9" font-weight="bold">Elegir N° registro</text>
<text x="1250" y="663" text-anchor="middle" fill="#555" font-size="7.5">1 hasta N</text>

<line x1="1250" y1="670" x2="1250" y2="688" stroke="#c0392b" stroke-width="1.8" marker-end="url(#ar)"/>

<rect x="1168" y="690" width="164" height="34" rx="6" fill="#fdf2f0" stroke="#c0392b" stroke-width="1.8"/>
<text x="1250" y="705" text-anchor="middle" fill="#c0392b" font-size="9" font-weight="bold">Escribir observación</text>
<text x="1250" y="718" text-anchor="middle" fill="#555" font-size="7.5">Texto libre</text>

<line x1="1250" y1="724" x2="1250" y2="742" stroke="#c0392b" stroke-width="1.8" marker-end="url(#ar)"/>

<rect x="1178" y="744" width="144" height="28" rx="5" fill="#c0392b"/>
<text x="1250" y="762" text-anchor="middle" fill="white" font-size="9" font-weight="bold">✅ Observación guardada</text>

<!-- Regresa al menú médico -->
<line x1="1250" y1="772" x2="1250" y2="800" stroke="#c0392b" stroke-width="1.4" stroke-dasharray="4,3"/>
<line x1="1250" y1="800" x2="1040" y2="800" stroke="#c0392b" stroke-width="1.4" stroke-dasharray="4,3"/>
<line x1="1040" y1="800" x2="1040" y2="502" stroke="#c0392b" stroke-width="1.4" stroke-dasharray="4,3" marker-end="url(#ar)"/>
<text x="1155" y="795" text-anchor="middle" fill="#555" font-size="8">← regresa al menú médico</text>

<!-- Opción 4 -->
<text x="1070" y="558" fill="#c0392b" font-size="8">4 → INICIO</text>

<!-- ══════════════════════════════════════════════════════════
     ALERTAS CLÍNICAS
══════════════════════════════════════════════════════════ -->
<rect x="600" y="630" width="360" height="130" rx="8" fill="#fef9e7" stroke="#f0ad4e" stroke-width="2"/>
<text x="780" y="650" text-anchor="middle" fill="#7d6608" font-size="10" font-weight="bold">⚠️ Alertas Clínicas Automáticas</text>
<text x="780" y="668" text-anchor="middle" fill="#555" font-size="8.5">🚨 Sistólica ≥ 180 mmHg → Crisis hipertensiva</text>
<text x="780" y="683" text-anchor="middle" fill="#555" font-size="8.5">⚠️ Sistólica 130–179 / Diastólica ≥ 90 → Hipertensión</text>
<text x="780" y="698" text-anchor="middle" fill="#555" font-size="8.5">⚠️ F. Cardíaca &gt;100 → Taquicardia · &lt;60 → Bradicardia</text>
<text x="780" y="713" text-anchor="middle" fill="#555" font-size="8.5">⚠️ Temp ≥ 38°C → Fiebre · &lt;36°C → Hipotermia</text>
<text x="780" y="728" text-anchor="middle" fill="#555" font-size="8.5">🚨 O₂ &lt; 90% → Saturación crítica (urgencias)</text>
<text x="780" y="747" text-anchor="middle" fill="#7d6608" font-size="8" font-style="italic">Se muestran al usuario en tiempo real al registrar</text>

<!-- ══════════════════════════════════════════════════════════
     LEYENDA
══════════════════════════════════════════════════════════ -->
<rect x="28" y="870" width="610" height="60" rx="6" fill="white" stroke="#ccc" stroke-width="1"/>
<text x="40" y="888" fill="#333" font-size="10" font-weight="bold">Leyenda de colores:</text>
<rect x="40" y="896" width="14" height="10" rx="2" fill="#0e6655"/>
<text x="59" y="906" fill="#0e6655" font-size="9">Flujo Paciente</text>
<rect x="155" y="896" width="14" height="10" rx="2" fill="#c0392b"/>
<text x="174" y="906" fill="#c0392b" font-size="9">Flujo Médico</text>
<rect x="260" y="896" width="14" height="10" rx="2" fill="#e67e22"/>
<text x="279" y="906" fill="#e67e22" font-size="9">Campos opcionales</text>
<rect x="390" y="896" width="14" height="10" rx="2" fill="#1a3a5c"/>
<text x="409" y="906" fill="#1a3a5c" font-size="9">Inicio / común</text>
<polygon points="40,918 50,906 60,918 50,930" fill="white" stroke="#1a3a5c" stroke-width="1.5"/>
<text x="66" y="922" fill="#555" font-size="9">Gateway (decisión)</text>
<line x1="170" y1="918" x2="200" y2="918" stroke="#1a3a5c" stroke-width="1.4" stroke-dasharray="4,3" marker-end="url(#ab)"/>
<text x="205" y="922" fill="#555" font-size="9">Flujo de retorno</text>

<!-- Persistencia -->
<rect x="680" y="870" width="260" height="60" rx="6" fill="#eaf2ff" stroke="#1a3a5c" stroke-width="1.5"/>
<text x="810" y="888" text-anchor="middle" fill="#1a3a5c" font-size="10" font-weight="bold">💾 Persistencia de Datos</text>
<text x="810" y="904" text-anchor="middle" fill="#555" font-size="8.5">Todos los datos se guardan en</text>
<text x="810" y="918" text-anchor="middle" fill="#555" font-size="8.5">localStorage del navegador.</text>

<!-- Médicos preconfigurados -->
<rect x="980" y="870" width="340" height="60" rx="6" fill="#fdf2f0" stroke="#c0392b" stroke-width="1.5"/>
<text x="1150" y="888" text-anchor="middle" fill="#c0392b" font-size="10" font-weight="bold">🩺 Médicos Preconfigurados</text>
<text x="1150" y="904" text-anchor="middle" fill="#555" font-size="8.5">Dr. García → contraseña: 1234</text>
<text x="1150" y="918" text-anchor="middle" fill="#555" font-size="8.5">Dra. Martínez → contraseña: 5678</text>

</svg>
