<?xml version="1.0" encoding="UTF-8"?>
<svg xmlns="http://www.w3.org/2000/svg" width="1500" height="910"
     viewBox="0 0 1500 910" font-family="Segoe UI, Arial, sans-serif"
     style="background:#f4f6fb">

<defs>
  <marker id="a1" markerWidth="8" markerHeight="8" refX="7" refY="3" orient="auto"><path d="M0,0 L0,6 L8,3z" fill="#1a3a5c"/></marker>
  <marker id="a2" markerWidth="8" markerHeight="8" refX="7" refY="3" orient="auto"><path d="M0,0 L0,6 L8,3z" fill="#0e6655"/></marker>
  <marker id="a3" markerWidth="8" markerHeight="8" refX="7" refY="3" orient="auto"><path d="M0,0 L0,6 L8,3z" fill="#7d3c98"/></marker>
  <marker id="a4" markerWidth="8" markerHeight="8" refX="7" refY="3" orient="auto"><path d="M0,0 L0,6 L8,3z" fill="#c0392b"/></marker>
</defs>

<!-- ── TITLE BAR ─────────────────────────────────────────────────── -->
<rect x="0" y="0" width="1500" height="52" fill="#1a3a5c" rx="6"/>
<text x="750" y="33" text-anchor="middle" fill="white" font-size="17" font-weight="bold">
  DIAGRAMA BPMN — Proceso de Desarrollo ChatBot Médico (2026-1)
</text>

<!-- ── POOL OUTER BORDER ──────────────────────────────────────────── -->
<rect x="12" y="56" width="1476" height="800" fill="none" stroke="#1a3a5c" stroke-width="2.5" rx="5"/>

<!-- ═══════════════════════════════════════════════════════════════
     LANE BACKGROUNDS
════════════════════════════════════════════════════════════════ -->
<!-- Lane 1: Equipo Desarrollo — y=56..256 -->
<rect x="12"  y="56"  width="80" height="200" fill="#1a3a5c" rx="0"/>
<rect x="92"  y="56"  width="1396" height="200" fill="#e8f0fb" stroke="#1a3a5c" stroke-width="1.5"/>

<!-- Lane 2: IA (Claude) — y=256..456 -->
<rect x="12"  y="256" width="80" height="200" fill="#0e6655" rx="0"/>
<rect x="92"  y="256" width="1396" height="200" fill="#e8f6f3" stroke="#0e6655" stroke-width="1.5"/>

<!-- Lane 3: QA / Pruebas — y=456..656 -->
<rect x="12"  y="456" width="80" height="200" fill="#7d3c98" rx="0"/>
<rect x="92"  y="456" width="1396" height="200" fill="#f5eef8" stroke="#7d3c98" stroke-width="1.5"/>

<!-- Lane 4: Repositorio GitHub — y=656..856 -->
<rect x="12"  y="656" width="80" height="200" fill="#c0392b" rx="0"/>
<rect x="92"  y="656" width="1396" height="200" fill="#fdf2f0" stroke="#c0392b" stroke-width="1.5"/>

<!-- ── LANE LABEL TEXTS (rotated, centered in each strip) ─────────
     translate(center_x_of_strip, center_y_of_lane) rotate(-90)
     strip center_x = 12 + 80/2 = 52
     Lane centers: 56+100=156, 256+100=356, 456+100=556, 656+100=756
───────────────────────────────────────────────────────────────── -->
<text transform="translate(52,156) rotate(-90)" text-anchor="middle"
      fill="white" font-size="12" font-weight="bold">EQUIPO DESARROLLO</text>
<text transform="translate(52,356) rotate(-90)" text-anchor="middle"
      fill="white" font-size="12" font-weight="bold">IA (CLAUDE)</text>
<text transform="translate(52,556) rotate(-90)" text-anchor="middle"
      fill="white" font-size="12" font-weight="bold">QA / PRUEBAS</text>
<text transform="translate(52,756) rotate(-90)" text-anchor="middle"
      fill="white" font-size="12" font-weight="bold">REPOSITORIO GITHUB</text>

<!-- ── SUB-HEADER NAMES ──────────────────────────────────────────── -->
<text x="110" y="75" fill="#1a3a5c" font-size="9.5" font-weight="bold">Ernesto Guevara / John Morales</text>
<text x="110" y="275" fill="#0e6655" font-size="9.5" font-weight="bold">Asistente de IA</text>
<text x="110" y="475" fill="#7d3c98" font-size="9.5" font-weight="bold">Diana Henao</text>
<text x="110" y="675" fill="#c0392b" font-size="9.5" font-weight="bold">GitHub / GitHub Projects</text>

<!-- ═══════════════════════════════════════════════════════════════
     PHASE SEPARATOR LINES + HEADERS
════════════════════════════════════════════════════════════════ -->
<!-- Phase boundaries: 92 | 315 | 540 | 900 | 1090 | 1310 | 1488 -->
<line x1="315"  y1="56" x2="315"  y2="856" stroke="#aaa" stroke-width="1" stroke-dasharray="5,3"/>
<line x1="540"  y1="56" x2="540"  y2="856" stroke="#aaa" stroke-width="1" stroke-dasharray="5,3"/>
<line x1="900"  y1="56" x2="900"  y2="856" stroke="#aaa" stroke-width="1" stroke-dasharray="5,3"/>
<line x1="1090" y1="56" x2="1090" y2="856" stroke="#aaa" stroke-width="1" stroke-dasharray="5,3"/>
<line x1="1310" y1="56" x2="1310" y2="856" stroke="#aaa" stroke-width="1" stroke-dasharray="5,3"/>

<!-- Phase titles -->
<text x="200"  y="70" text-anchor="middle" fill="#1a3a5c" font-size="10" font-weight="bold">PLANEACIÓN</text>
<text x="425"  y="70" text-anchor="middle" fill="#1a3a5c" font-size="10" font-weight="bold">ANÁLISIS Y DISEÑO</text>
<text x="715"  y="70" text-anchor="middle" fill="#1a3a5c" font-size="10" font-weight="bold">CODIFICACIÓN (Feature Branches)</text>
<text x="992"  y="70" text-anchor="middle" fill="#1a3a5c" font-size="10" font-weight="bold">REFACTORIZACIÓN</text>
<text x="1198" y="70" text-anchor="middle" fill="#1a3a5c" font-size="10" font-weight="bold">PRUEBAS</text>
<text x="1400" y="70" text-anchor="middle" fill="#1a3a5c" font-size="10" font-weight="bold">CIERRE</text>

<!-- ═══════════════════════════════════════════════════════════════
     LANE 1 — EQUIPO DESARROLLO  (y center = 156)
════════════════════════════════════════════════════════════════ -->

<!-- Start event -->
<circle cx="120" cy="156" r="16" fill="white" stroke="#1a3a5c" stroke-width="3"/>
<circle cx="120" cy="156" r="10" fill="#1a3a5c"/>
<text x="120" y="191" text-anchor="middle" fill="#1a3a5c" font-size="9">Inicio</text>

<!-- Task: Definir requisitos -->
<rect x="150" y="136" width="140" height="40" rx="7" fill="white" stroke="#1a3a5c" stroke-width="2"/>
<text x="220" y="153" text-anchor="middle" fill="#1a3a5c" font-size="9" font-weight="bold">Definir requisitos</text>
<text x="220" y="167" text-anchor="middle" fill="#444" font-size="8">(Product Backlog)</text>

<!-- Task: Diseñar arquitectura -->
<rect x="340" y="136" width="160" height="40" rx="7" fill="white" stroke="#1a3a5c" stroke-width="2"/>
<text x="420" y="153" text-anchor="middle" fill="#1a3a5c" font-size="9" font-weight="bold">Diseñar arquitectura</text>
<text x="420" y="167" text-anchor="middle" fill="#444" font-size="8">y flujo del chatbot</text>

<!-- Gateway: ¿Hay features pendientes? -->
<polygon points="580,156 602,134 624,156 602,178" fill="white" stroke="#1a3a5c" stroke-width="2.2"/>
<text x="602" y="160" text-anchor="middle" fill="#1a3a5c" font-size="10">✕</text>
<text x="602" y="198" text-anchor="middle" fill="#1a3a5c" font-size="8">¿Features</text>
<text x="602" y="209" text-anchor="middle" fill="#1a3a5c" font-size="8">pendientes?</text>

<!-- Task: Crear feature branch -->
<rect x="640" y="136" width="130" height="40" rx="7" fill="white" stroke="#1a3a5c" stroke-width="2"/>
<text x="705" y="153" text-anchor="middle" fill="#1a3a5c" font-size="9" font-weight="bold">Crear feature</text>
<text x="705" y="167" text-anchor="middle" fill="#444" font-size="8">branch</text>

<!-- Task: Implementar feature -->
<rect x="790" y="136" width="130" height="40" rx="7" fill="white" stroke="#1a3a5c" stroke-width="2"/>
<text x="855" y="153" text-anchor="middle" fill="#1a3a5c" font-size="9" font-weight="bold">Implementar</text>
<text x="855" y="167" text-anchor="middle" fill="#444" font-size="8">feature</text>

<!-- Task: Identificar y refactorizar -->
<rect x="920" y="136" width="148" height="40" rx="7" fill="white" stroke="#e67e22" stroke-width="2"/>
<text x="994" y="153" text-anchor="middle" fill="#e67e22" font-size="9" font-weight="bold">Identificar código</text>
<text x="994" y="167" text-anchor="middle" fill="#444" font-size="8">a mejorar</text>

<!-- Task: Documentar resultados -->
<rect x="1320" y="136" width="148" height="40" rx="7" fill="white" stroke="#1a3a5c" stroke-width="2"/>
<text x="1394" y="153" text-anchor="middle" fill="#1a3a5c" font-size="9" font-weight="bold">Documentar</text>
<text x="1394" y="167" text-anchor="middle" fill="#444" font-size="8">resultados</text>

<!-- End event -->
<circle cx="1460" cy="156" r="16" fill="white" stroke="#1a3a5c" stroke-width="3"/>
<circle cx="1460" cy="156" r="10" fill="white" stroke="#1a3a5c" stroke-width="2.5"/>
<circle cx="1460" cy="156" r="5"  fill="#1a3a5c"/>
<text x="1460" y="191" text-anchor="middle" fill="#1a3a5c" font-size="9">Fin</text>

<!-- ── Lane 1 Arrows ───────────────────────────────────────────── -->
<line x1="136" y1="156" x2="150" y2="156" stroke="#1a3a5c" stroke-width="1.8" marker-end="url(#a1)"/>
<line x1="290" y1="156" x2="340" y2="156" stroke="#1a3a5c" stroke-width="1.8" marker-end="url(#a1)"/>
<line x1="500" y1="156" x2="580" y2="156" stroke="#1a3a5c" stroke-width="1.8" marker-end="url(#a1)"/>
<line x1="624" y1="156" x2="640" y2="156" stroke="#1a3a5c" stroke-width="1.8" marker-end="url(#a1)"/>
<text x="634" y="150" fill="#0e6655" font-size="8">Sí</text>
<line x1="770" y1="156" x2="790" y2="156" stroke="#1a3a5c" stroke-width="1.8" marker-end="url(#a1)"/>
<line x1="920" y1="156" x2="920" y2="156" stroke="none"/>
<!-- Implementar → identificar refact -->
<line x1="855" y1="136" x2="855" y2="120" stroke="#1a3a5c" stroke-width="1.5"/>
<line x1="855" y1="120" x2="994" y2="120" stroke="#1a3a5c" stroke-width="1.5"/>
<line x1="994" y1="120" x2="994" y2="136" stroke="#1a3a5c" stroke-width="1.5" marker-end="url(#a1)"/>
<!-- Identificar → (pruebas se unen luego) → documentar -->
<line x1="1068" y1="156" x2="1320" y2="156" stroke="#1a3a5c" stroke-width="1.8" marker-end="url(#a1)"/>
<line x1="1468" y1="156" x2="1444" y2="156" stroke="#1a3a5c" stroke-width="1.8" marker-end="url(#a1)"/>

<!-- Gateway No → saltar al cierre cuando no hay más features -->
<line x1="602" y1="178" x2="602" y2="225" stroke="#1a3a5c" stroke-width="1.5" stroke-dasharray="4,3"/>
<line x1="602" y1="225" x2="1394" y2="225" stroke="#1a3a5c" stroke-width="1.5" stroke-dasharray="4,3"/>
<line x1="1394" y1="225" x2="1394" y2="176" stroke="#1a3a5c" stroke-width="1.5" stroke-dasharray="4,3" marker-end="url(#a1)"/>
<text x="980" y="219" text-anchor="middle" fill="#666" font-size="8">No — todas las features completas</text>

<!-- ═══════════════════════════════════════════════════════════════
     LANE 2 — IA (CLAUDE)  (y center = 356)
════════════════════════════════════════════════════════════════ -->

<!-- Task: Sugerir stack -->
<rect x="150" y="336" width="140" height="40" rx="7" fill="white" stroke="#0e6655" stroke-width="2"/>
<text x="220" y="353" text-anchor="middle" fill="#0e6655" font-size="9" font-weight="bold">Sugerir stack</text>
<text x="220" y="367" text-anchor="middle" fill="#444" font-size="8">tecnológico</text>

<!-- Task: Proponer diseño de estados -->
<rect x="340" y="336" width="160" height="40" rx="7" fill="white" stroke="#0e6655" stroke-width="2"/>
<text x="420" y="353" text-anchor="middle" fill="#0e6655" font-size="9" font-weight="bold">Proponer diseño</text>
<text x="420" y="367" text-anchor="middle" fill="#444" font-size="8">de estados</text>

<!-- Task: Asistir codificación -->
<rect x="640" y="336" width="130" height="40" rx="7" fill="white" stroke="#0e6655" stroke-width="2"/>
<text x="705" y="353" text-anchor="middle" fill="#0e6655" font-size="9" font-weight="bold">Asistir en</text>
<text x="705" y="367" text-anchor="middle" fill="#444" font-size="8">codificación</text>

<!-- Task: Revisar y sugerir mejoras -->
<rect x="790" y="336" width="130" height="40" rx="7" fill="white" stroke="#0e6655" stroke-width="2"/>
<text x="855" y="353" text-anchor="middle" fill="#0e6655" font-size="9" font-weight="bold">Revisar y sugerir</text>
<text x="855" y="367" text-anchor="middle" fill="#444" font-size="8">mejoras</text>

<!-- Task: Sugerir y aplicar refactorización -->
<rect x="920" y="336" width="148" height="40" rx="7" fill="white" stroke="#0e6655" stroke-width="2"/>
<text x="994" y="353" text-anchor="middle" fill="#0e6655" font-size="9" font-weight="bold">Sugerir y aplicar</text>
<text x="994" y="367" text-anchor="middle" fill="#444" font-size="8">refactorización</text>

<!-- Task: Generar casos de prueba -->
<rect x="1110" y="336" width="148" height="40" rx="7" fill="white" stroke="#0e6655" stroke-width="2"/>
<text x="1184" y="353" text-anchor="middle" fill="#0e6655" font-size="9" font-weight="bold">Generar casos</text>
<text x="1184" y="367" text-anchor="middle" fill="#444" font-size="8">de prueba</text>

<!-- ── Lane 2 dashed connectors from lane 1 ───────────────────── -->
<line x1="220" y1="256" x2="220" y2="336" stroke="#0e6655" stroke-width="1.4" stroke-dasharray="5,3" marker-end="url(#a2)"/>
<line x1="420" y1="256" x2="420" y2="336" stroke="#0e6655" stroke-width="1.4" stroke-dasharray="5,3" marker-end="url(#a2)"/>
<line x1="705" y1="256" x2="705" y2="336" stroke="#0e6655" stroke-width="1.4" stroke-dasharray="5,3" marker-end="url(#a2)"/>
<line x1="855" y1="256" x2="855" y2="336" stroke="#0e6655" stroke-width="1.4" stroke-dasharray="5,3" marker-end="url(#a2)"/>
<line x1="994" y1="256" x2="994" y2="336" stroke="#0e6655" stroke-width="1.4" stroke-dasharray="5,3" marker-end="url(#a2)"/>
<line x1="1184" y1="456" x2="1184" y2="376" stroke="#0e6655" stroke-width="1.4" stroke-dasharray="5,3" marker-end="url(#a2)"/>

<!-- ═══════════════════════════════════════════════════════════════
     LANE 3 — QA / PRUEBAS  (y center = 556)
════════════════════════════════════════════════════════════════ -->

<!-- Task: Escribir pruebas unitarias -->
<rect x="1110" y="488" width="148" height="40" rx="7" fill="white" stroke="#7d3c98" stroke-width="2"/>
<text x="1184" y="505" text-anchor="middle" fill="#7d3c98" font-size="9" font-weight="bold">Escribir pruebas</text>
<text x="1184" y="519" text-anchor="middle" fill="#444" font-size="8">unitarias (Vitest)</text>

<!-- Task: Ejecutar y validar -->
<rect x="1110" y="543" width="148" height="40" rx="7" fill="white" stroke="#7d3c98" stroke-width="2"/>
<text x="1184" y="560" text-anchor="middle" fill="#7d3c98" font-size="9" font-weight="bold">Ejecutar y validar</text>
<text x="1184" y="574" text-anchor="middle" fill="#444" font-size="8">resultados</text>

<!-- Gateway: ¿Pruebas OK? -->
<polygon points="1260,600 1282,578 1304,600 1282,622" fill="white" stroke="#7d3c98" stroke-width="2.2"/>
<text x="1282" y="604" text-anchor="middle" fill="#7d3c98" font-size="10">✕</text>
<text x="1282" y="644" text-anchor="middle" fill="#7d3c98" font-size="8">¿Pruebas</text>
<text x="1282" y="655" text-anchor="middle" fill="#7d3c98" font-size="8">OK?</text>

<!-- Task: Retrospectiva -->
<rect x="1320" y="488" width="148" height="40" rx="7" fill="white" stroke="#7d3c98" stroke-width="2"/>
<text x="1394" y="505" text-anchor="middle" fill="#7d3c98" font-size="9" font-weight="bold">Retrospectiva</text>
<text x="1394" y="519" text-anchor="middle" fill="#444" font-size="8">del proceso</text>

<!-- ── Lane 3 arrows ───────────────────────────────────────────── -->
<line x1="1184" y1="528" x2="1184" y2="543" stroke="#7d3c98" stroke-width="1.8" marker-end="url(#a3)"/>
<line x1="1184" y1="583" x2="1184" y2="593" stroke="#7d3c98" stroke-width="1.8"/>
<line x1="1184" y1="593" x2="1260" y2="600" stroke="#7d3c98" stroke-width="1.8" marker-end="url(#a3)"/>

<!-- Sí → documentar (cruza a lane 1) -->
<line x1="1304" y1="600" x2="1350" y2="600" stroke="#7d3c98" stroke-width="1.5"/>
<line x1="1350" y1="600" x2="1350" y2="176" stroke="#7d3c98" stroke-width="1.5" marker-end="url(#a1)"/>
<text x="1330" y="596" fill="#0e6655" font-size="8">Sí</text>

<!-- No → volver a implementar -->
<line x1="1282" y1="622" x2="1282" y2="660" stroke="#7d3c98" stroke-width="1.5" stroke-dasharray="4,3"/>
<line x1="1282" y1="660" x2="855"  y2="660" stroke="#7d3c98" stroke-width="1.5" stroke-dasharray="4,3"/>
<line x1="855"  y1="660" x2="855"  y2="176" stroke="#7d3c98" stroke-width="1.5" stroke-dasharray="4,3" marker-end="url(#a1)"/>
<text x="1070" y="654" text-anchor="middle" fill="#c0392b" font-size="8">No → corregir</text>

<!-- Retrospectiva connector (from lane 1 documentar via lane boundary) -->
<line x1="1394" y1="456" x2="1394" y2="488" stroke="#7d3c98" stroke-width="1.5" stroke-dasharray="5,3" marker-end="url(#a3)"/>

<!-- ═══════════════════════════════════════════════════════════════
     LANE 4 — REPOSITORIO GITHUB  (y center = 756)
════════════════════════════════════════════════════════════════ -->

<!-- Task: Crear repositorio + Kanban -->
<rect x="150" y="736" width="148" height="40" rx="7" fill="white" stroke="#c0392b" stroke-width="2"/>
<text x="224" y="753" text-anchor="middle" fill="#c0392b" font-size="9" font-weight="bold">Crear repositorio</text>
<text x="224" y="767" text-anchor="middle" fill="#444" font-size="8">+ tablero Kanban</text>

<!-- Task: Commits al branch -->
<rect x="640" y="736" width="130" height="40" rx="7" fill="white" stroke="#c0392b" stroke-width="2"/>
<text x="705" y="753" text-anchor="middle" fill="#c0392b" font-size="9" font-weight="bold">Commits al</text>
<text x="705" y="767" text-anchor="middle" fill="#444" font-size="8">feature branch</text>

<!-- Task: Crear Pull Request -->
<rect x="790" y="736" width="130" height="40" rx="7" fill="white" stroke="#c0392b" stroke-width="2"/>
<text x="855" y="753" text-anchor="middle" fill="#c0392b" font-size="9" font-weight="bold">Crear Pull Request</text>
<text x="855" y="767" text-anchor="middle" fill="#444" font-size="8">→ develop</text>

<!-- Task: Merge develop → main -->
<rect x="1320" y="736" width="148" height="40" rx="7" fill="white" stroke="#c0392b" stroke-width="2"/>
<text x="1394" y="753" text-anchor="middle" fill="#c0392b" font-size="9" font-weight="bold">Merge develop</text>
<text x="1394" y="767" text-anchor="middle" fill="#444" font-size="8">→ main</text>

<!-- ── Lane 4 dashed connectors ───────────────────────────────── -->
<line x1="224"  y1="656" x2="224"  y2="736" stroke="#c0392b" stroke-width="1.4" stroke-dasharray="5,3" marker-end="url(#a4)"/>
<line x1="705"  y1="656" x2="705"  y2="736" stroke="#c0392b" stroke-width="1.4" stroke-dasharray="5,3" marker-end="url(#a4)"/>
<line x1="855"  y1="656" x2="855"  y2="736" stroke="#c0392b" stroke-width="1.4" stroke-dasharray="5,3" marker-end="url(#a4)"/>
<line x1="1394" y1="656" x2="1394" y2="736" stroke="#c0392b" stroke-width="1.4" stroke-dasharray="5,3" marker-end="url(#a4)"/>

<!-- ═══════════════════════════════════════════════════════════════
     LEGEND + BADGES
════════════════════════════════════════════════════════════════ -->
<rect x="92" y="862" width="500" height="40" fill="white" stroke="#ccc" stroke-width="1" rx="4"/>
<text x="105" y="878" fill="#333" font-size="9.5" font-weight="bold">LEYENDA:</text>
<rect x="172" y="868" width="18" height="12" rx="3" fill="white" stroke="#1a3a5c" stroke-width="2"/>
<text x="195" y="879" fill="#1a3a5c" font-size="9">Tarea equipo</text>
<rect x="278" y="868" width="18" height="12" rx="3" fill="white" stroke="#0e6655" stroke-width="2"/>
<text x="301" y="879" fill="#0e6655" font-size="9">Tarea IA</text>
<rect x="368" y="868" width="18" height="12" rx="3" fill="white" stroke="#7d3c98" stroke-width="2"/>
<text x="391" y="879" fill="#7d3c98" font-size="9">QA / Pruebas</text>
<rect x="472" y="868" width="18" height="12" rx="3" fill="white" stroke="#c0392b" stroke-width="2"/>
<text x="495" y="879" fill="#c0392b" font-size="9">Repositorio</text>

<polygon points="172,892 182,880 192,892 182,904" fill="white" stroke="#1a3a5c" stroke-width="1.5"/>
<text x="200" y="895" fill="#555" font-size="9">Gateway (decisión)</text>
<line x1="280" y1="892" x2="310" y2="892" stroke="#1a3a5c" stroke-width="1.5" stroke-dasharray="4,3" marker-end="url(#a1)"/>
<text x="315" y="896" fill="#555" font-size="9">Flujo de retorno</text>
<line x1="410" y1="892" x2="440" y2="892" stroke="#0e6655" stroke-width="1.5" stroke-dasharray="4,3" marker-end="url(#a2)"/>
<text x="445" y="896" fill="#555" font-size="9">Interacción IA</text>

<!-- Badge: Práctica ágil -->
<rect x="660" y="862" width="250" height="40" fill="#fff3cd" stroke="#f0ad4e" stroke-width="1.5" rx="4"/>
<text x="785" y="879" text-anchor="middle" fill="#856404" font-size="9.5" font-weight="bold">⚡ Práctica Ágil Adicional:</text>
<text x="785" y="895" text-anchor="middle" fill="#856404" font-size="9">Code Review vía Pull Requests (GitHub)</text>

<!-- Badge: Refactorización -->
<rect x="930" y="862" width="220" height="40" fill="#d4edda" stroke="#28a745" stroke-width="1.5" rx="4"/>
<text x="1040" y="879" text-anchor="middle" fill="#155724" font-size="9.5" font-weight="bold">🔧 Refactorización:</text>
<text x="1040" y="895" text-anchor="middle" fill="#155724" font-size="9">Branch dedicado + IA supervisada</text>

<!-- Badge: IA -->
<rect x="1170" y="862" width="220" height="40" fill="#e8f6f3" stroke="#0e6655" stroke-width="1.5" rx="4"/>
<text x="1280" y="879" text-anchor="middle" fill="#0e6655" font-size="9.5" font-weight="bold">🤖 IA Controlada:</text>
<text x="1280" y="895" text-anchor="middle" fill="#0e6655" font-size="9">Claude Code — revisión humana obligatoria</text>

</svg>
