<?xml version="1.0" encoding="UTF-8"?>
<svg xmlns="http://www.w3.org/2000/svg" width="1400" height="860" viewBox="0 0 1400 860" font-family="Segoe UI, Arial, sans-serif">

  <!-- Background -->
  <rect width="1400" height="860" fill="#f8f9fa" rx="8"/>

  <!-- Title -->
  <rect x="0" y="0" width="1400" height="50" fill="#1a3a5c" rx="8"/>
  <rect x="0" y="42" width="1400" height="8" fill="#1a3a5c"/>
  <text x="700" y="32" text-anchor="middle" fill="white" font-size="18" font-weight="bold">DIAGRAMA BPMN — Proceso de Desarrollo ChatBot Médico (2026-1)</text>

  <!-- POOL BORDER -->
  <rect x="20" y="60" width="1360" height="780" fill="none" stroke="#1a3a5c" stroke-width="2.5" rx="6"/>

  <!-- ═══════════════════════════════════════════════════════════════
       LANES
  ════════════════════════════════════════════════════════════════ -->

  <!-- Lane 1: Equipo de Desarrollo (Ernesto + John) -->
  <rect x="20" y="60" width="55" height="195" fill="#1a3a5c"/>
  <text transform="translate(47,255) rotate(-90)" text-anchor="middle" fill="white" font-size="11" font-weight="bold">EQUIPO DESARROLLO</text>
  <rect x="75" y="60" width="1305" height="195" fill="#e8f0fb" stroke="#1a3a5c" stroke-width="1.5"/>
  <text x="100" y="83" fill="#1a3a5c" font-size="10" font-weight="bold">Ernesto Guevara / John Morales</text>

  <!-- Lane 2: IA (Claude) -->
  <rect x="20" y="255" width="55" height="195" fill="#0e6655"/>
  <text transform="translate(47,450) rotate(-90)" text-anchor="middle" fill="white" font-size="11" font-weight="bold">IA (CLAUDE)</text>
  <rect x="75" y="255" width="1305" height="195" fill="#e8f6f3" stroke="#0e6655" stroke-width="1.5"/>
  <text x="100" y="278" fill="#0e6655" font-size="10" font-weight="bold">Asistente de IA</text>

  <!-- Lane 3: QA / Pruebas (Diana) -->
  <rect x="20" y="450" width="55" height="195" fill="#7d3c98"/>
  <text transform="translate(47,645) rotate(-90)" text-anchor="middle" fill="white" font-size="11" font-weight="bold">QA / PRUEBAS</text>
  <rect x="75" y="450" width="1305" height="195" fill="#f5eef8" stroke="#7d3c98" stroke-width="1.5"/>
  <text x="100" y="473" fill="#7d3c98" font-size="10" font-weight="bold">Diana Henao</text>

  <!-- Lane 4: Repositorio GitHub -->
  <rect x="20" y="645" width="55" height="195" fill="#c0392b"/>
  <text transform="translate(47,840) rotate(-90)" text-anchor="middle" fill="white" font-size="11" font-weight="bold">REPOSITORIO GITHUB</text>
  <rect x="75" y="645" width="1305" height="195" fill="#fdf2f0" stroke="#c0392b" stroke-width="1.5"/>
  <text x="100" y="668" fill="#c0392b" font-size="10" font-weight="bold">GitHub / GitHub Projects</text>

  <!-- ═══════════════════════════════════════════════════════════════
       FASE 1: PLANEACIÓN
  ════════════════════════════════════════════════════════════════ -->
  <text x="155" y="76" text-anchor="middle" fill="#1a3a5c" font-size="10" font-weight="bold">PLANEACIÓN</text>
  <line x1="220" y1="62" x2="220" y2="838" stroke="#aaa" stroke-width="1" stroke-dasharray="4,3"/>

  <!-- Start Event -->
  <circle cx="110" cy="155" r="18" fill="white" stroke="#1a3a5c" stroke-width="3"/>
  <circle cx="110" cy="155" r="12" fill="#1a3a5c"/>
  <text x="110" y="192" text-anchor="middle" fill="#1a3a5c" font-size="9">Inicio</text>

  <!-- Task: Definir requisitos -->
  <rect x="140" y="135" width="110" height="40" rx="8" fill="white" stroke="#1a3a5c" stroke-width="2"/>
  <text x="195" y="152" text-anchor="middle" fill="#1a3a5c" font-size="9" font-weight="bold">Definir requisitos</text>
  <text x="195" y="166" text-anchor="middle" fill="#1a3a5c" font-size="8">(Product Backlog)</text>

  <!-- IA Lane: Sugerir tecnologías -->
  <rect x="140" y="290" width="110" height="40" rx="8" fill="white" stroke="#0e6655" stroke-width="2"/>
  <text x="195" y="307" text-anchor="middle" fill="#0e6655" font-size="9" font-weight="bold">Sugerir stack</text>
  <text x="195" y="321" text-anchor="middle" fill="#0e6655" font-size="8">tecnológico</text>

  <!-- GitHub Lane: Crear repo + Kanban -->
  <rect x="140" y="680" width="110" height="40" rx="8" fill="white" stroke="#c0392b" stroke-width="2"/>
  <text x="195" y="697" text-anchor="middle" fill="#c0392b" font-size="9" font-weight="bold">Crear repositorio</text>
  <text x="195" y="711" text-anchor="middle" fill="#c0392b" font-size="8">+ tablero Kanban</text>

  <!-- Arrows planeación -->
  <line x1="128" y1="155" x2="140" y2="155" stroke="#1a3a5c" stroke-width="1.8" marker-end="url(#arrow-blue)"/>
  <!-- Equipo → IA -->
  <line x1="195" y1="255" x2="195" y2="290" stroke="#0e6655" stroke-width="1.5" stroke-dasharray="5,3" marker-end="url(#arrow-green)"/>
  <!-- Equipo → GitHub -->
  <line x1="195" y1="450" x2="195" y2="680" stroke="#c0392b" stroke-width="1.5" stroke-dasharray="5,3" marker-end="url(#arrow-red)"/>

  <!-- ═══════════════════════════════════════════════════════════════
       FASE 2: ANÁLISIS / DISEÑO
  ════════════════════════════════════════════════════════════════ -->
  <text x="330" y="76" text-anchor="middle" fill="#1a3a5c" font-size="10" font-weight="bold">ANÁLISIS Y DISEÑO</text>
  <line x1="430" y1="62" x2="430" y2="838" stroke="#aaa" stroke-width="1" stroke-dasharray="4,3"/>

  <!-- Task: Diseñar arquitectura -->
  <rect x="250" y="135" width="115" height="40" rx="8" fill="white" stroke="#1a3a5c" stroke-width="2"/>
  <text x="307" y="152" text-anchor="middle" fill="#1a3a5c" font-size="9" font-weight="bold">Diseñar arquitectura</text>
  <text x="307" y="166" text-anchor="middle" fill="#1a3a5c" font-size="8">y flujo del chatbot</text>

  <!-- IA Lane: Proponer diseño -->
  <rect x="250" y="290" width="115" height="40" rx="8" fill="white" stroke="#0e6655" stroke-width="2"/>
  <text x="307" y="307" text-anchor="middle" fill="#0e6655" font-size="9" font-weight="bold">Proponer diseño</text>
  <text x="307" y="321" text-anchor="middle" fill="#0e6655" font-size="8">de estados</text>

  <!-- Arrows análisis -->
  <line x1="250" y1="155" x2="250" y2="155" stroke="none"/>
  <line x1="195" y1="155" x2="250" y2="155" stroke="#1a3a5c" stroke-width="1.8" marker-end="url(#arrow-blue)"/>
  <line x1="307" y1="255" x2="307" y2="290" stroke="#0e6655" stroke-width="1.5" stroke-dasharray="5,3" marker-end="url(#arrow-green)"/>

  <!-- ═══════════════════════════════════════════════════════════════
       FASE 3: CODIFICACIÓN (Sprints)
  ════════════════════════════════════════════════════════════════ -->
  <text x="610" y="76" text-anchor="middle" fill="#1a3a5c" font-size="10" font-weight="bold">CODIFICACIÓN (Feature Branches)</text>
  <line x1="800" y1="62" x2="800" y2="838" stroke="#aaa" stroke-width="1" stroke-dasharray="4,3"/>

  <!-- Gateway: Hay features pendientes? -->
  <polygon points="460,155 480,135 500,155 480,175" fill="white" stroke="#1a3a5c" stroke-width="2"/>
  <text x="480" y="159" text-anchor="middle" fill="#1a3a5c" font-size="9">✕</text>
  <text x="480" y="193" text-anchor="middle" fill="#1a3a5c" font-size="8">¿Hay features</text>
  <text x="480" y="204" text-anchor="middle" fill="#1a3a5c" font-size="8">pendientes?</text>

  <!-- Task: Crear feature branch -->
  <rect x="515" y="135" width="110" height="40" rx="8" fill="white" stroke="#1a3a5c" stroke-width="2"/>
  <text x="570" y="152" text-anchor="middle" fill="#1a3a5c" font-size="9" font-weight="bold">Crear feature</text>
  <text x="570" y="166" text-anchor="middle" fill="#1a3a5c" font-size="8">branch</text>

  <!-- Task: Implementar feature -->
  <rect x="645" y="135" width="110" height="40" rx="8" fill="white" stroke="#1a3a5c" stroke-width="2"/>
  <text x="700" y="152" text-anchor="middle" fill="#1a3a5c" font-size="9" font-weight="bold">Implementar</text>
  <text x="700" y="166" text-anchor="middle" fill="#1a3a5c" font-size="8">feature</text>

  <!-- IA: Asistir codificación -->
  <rect x="515" y="290" width="110" height="40" rx="8" fill="white" stroke="#0e6655" stroke-width="2"/>
  <text x="570" y="307" text-anchor="middle" fill="#0e6655" font-size="9" font-weight="bold">Asistir en</text>
  <text x="570" y="321" text-anchor="middle" fill="#0e6655" font-size="8">codificación</text>

  <!-- IA: Revisar código -->
  <rect x="645" y="290" width="110" height="40" rx="8" fill="white" stroke="#0e6655" stroke-width="2"/>
  <text x="700" y="307" text-anchor="middle" fill="#0e6655" font-size="9" font-weight="bold">Revisar y sugerir</text>
  <text x="700" y="321" text-anchor="middle" fill="#0e6655" font-size="8">mejoras</text>

  <!-- GitHub: Commits -->
  <rect x="515" y="680" width="110" height="40" rx="8" fill="white" stroke="#c0392b" stroke-width="2"/>
  <text x="570" y="697" text-anchor="middle" fill="#c0392b" font-size="9" font-weight="bold">Commits al</text>
  <text x="570" y="711" text-anchor="middle" fill="#c0392b" font-size="8">feature branch</text>

  <!-- GitHub: Pull Request -->
  <rect x="645" y="680" width="110" height="40" rx="8" fill="white" stroke="#c0392b" stroke-width="2"/>
  <text x="700" y="697" text-anchor="middle" fill="#c0392b" font-size="9" font-weight="bold">Crear Pull Request</text>
  <text x="700" y="711" text-anchor="middle" fill="#c0392b" font-size="8">→ develop</text>

  <!-- Arrows codificación -->
  <line x1="365" y1="155" x2="460" y2="155" stroke="#1a3a5c" stroke-width="1.8" marker-end="url(#arrow-blue)"/>
  <line x1="500" y1="155" x2="515" y2="155" stroke="#1a3a5c" stroke-width="1.8" marker-end="url(#arrow-blue)"/>
  <text x="504" y="148" fill="#1a3a5c" font-size="8">Sí</text>
  <line x1="625" y1="155" x2="645" y2="155" stroke="#1a3a5c" stroke-width="1.8" marker-end="url(#arrow-blue)"/>
  <line x1="570" y1="255" x2="570" y2="290" stroke="#0e6655" stroke-width="1.5" stroke-dasharray="5,3" marker-end="url(#arrow-green)"/>
  <line x1="700" y1="255" x2="700" y2="290" stroke="#0e6655" stroke-width="1.5" stroke-dasharray="5,3" marker-end="url(#arrow-green)"/>
  <line x1="570" y1="450" x2="570" y2="680" stroke="#c0392b" stroke-width="1.5" stroke-dasharray="5,3" marker-end="url(#arrow-red)"/>
  <line x1="700" y1="450" x2="700" y2="680" stroke="#c0392b" stroke-width="1.5" stroke-dasharray="5,3" marker-end="url(#arrow-red)"/>

  <!-- ═══════════════════════════════════════════════════════════════
       FASE 4: REFACTORIZACIÓN
  ════════════════════════════════════════════════════════════════ -->
  <text x="895" y="76" text-anchor="middle" fill="#1a3a5c" font-size="10" font-weight="bold">REFACTORIZACIÓN</text>
  <line x1="980" y1="62" x2="980" y2="838" stroke="#aaa" stroke-width="1" stroke-dasharray="4,3"/>

  <!-- Task: Identificar mejoras -->
  <rect x="815" y="135" width="120" height="40" rx="8" fill="white" stroke="#e67e22" stroke-width="2"/>
  <text x="875" y="152" text-anchor="middle" fill="#e67e22" font-size="9" font-weight="bold">Identificar código</text>
  <text x="875" y="166" text-anchor="middle" fill="#e67e22" font-size="8">a mejorar</text>

  <!-- Task: Aplicar refactoring -->
  <rect x="815" y="290" width="120" height="40" rx="8" fill="white" stroke="#0e6655" stroke-width="2"/>
  <text x="875" y="307" text-anchor="middle" fill="#0e6655" font-size="9" font-weight="bold">Sugerir y aplicar</text>
  <text x="875" y="321" text-anchor="middle" fill="#0e6655" font-size="8">refactorización</text>

  <!-- Arrows refactorización -->
  <line x1="755" y1="155" x2="815" y2="155" stroke="#1a3a5c" stroke-width="1.8" marker-end="url(#arrow-blue)"/>
  <line x1="875" y1="255" x2="875" y2="290" stroke="#0e6655" stroke-width="1.5" stroke-dasharray="5,3" marker-end="url(#arrow-green)"/>

  <!-- ═══════════════════════════════════════════════════════════════
       FASE 5: PRUEBAS
  ════════════════════════════════════════════════════════════════ -->
  <text x="1080" y="76" text-anchor="middle" fill="#1a3a5c" font-size="10" font-weight="bold">PRUEBAS</text>
  <line x1="1175" y1="62" x2="1175" y2="838" stroke="#aaa" stroke-width="1" stroke-dasharray="4,3"/>

  <!-- Task: Escribir pruebas -->
  <rect x="995" y="470" width="120" height="40" rx="8" fill="white" stroke="#7d3c98" stroke-width="2"/>
  <text x="1055" y="487" text-anchor="middle" fill="#7d3c98" font-size="9" font-weight="bold">Escribir pruebas</text>
  <text x="1055" y="501" text-anchor="middle" fill="#7d3c98" font-size="8">unitarias (Vitest)</text>

  <!-- Task: Ejecutar pruebas -->
  <rect x="995" y="530" width="120" height="40" rx="8" fill="white" stroke="#7d3c98" stroke-width="2"/>
  <text x="1055" y="547" text-anchor="middle" fill="#7d3c98" font-size="9" font-weight="bold">Ejecutar y validar</text>
  <text x="1055" y="561" text-anchor="middle" fill="#7d3c98" font-size="8">resultados</text>

  <!-- Gateway: Pruebas OK? -->
  <polygon points="1055,595 1075,575 1095,595 1075,615" fill="white" stroke="#7d3c98" stroke-width="2"/>
  <text x="1075" y="599" text-anchor="middle" fill="#7d3c98" font-size="9">✕</text>
  <text x="1075" y="635" text-anchor="middle" fill="#7d3c98" font-size="8">¿Pruebas</text>
  <text x="1075" y="646" text-anchor="middle" fill="#7d3c98" font-size="8">OK?</text>

  <!-- IA: Asistir en pruebas -->
  <rect x="995" y="290" width="120" height="40" rx="8" fill="white" stroke="#0e6655" stroke-width="2"/>
  <text x="1055" y="307" text-anchor="middle" fill="#0e6655" font-size="9" font-weight="bold">Generar casos</text>
  <text x="1055" y="321" text-anchor="middle" fill="#0e6655" font-size="8">de prueba</text>

  <!-- Arrows pruebas -->
  <line x1="935" y1="155" x2="1055" y2="155" stroke="#1a3a5c" stroke-width="1.8"/>
  <line x1="1055" y1="155" x2="1055" y2="255" stroke="#1a3a5c" stroke-width="1.8"/>
  <line x1="1055" y1="255" x2="1055" y2="290" stroke="#0e6655" stroke-width="1.5" stroke-dasharray="5,3" marker-end="url(#arrow-green)"/>
  <line x1="1055" y1="450" x2="1055" y2="470" stroke="#7d3c98" stroke-width="1.8" marker-end="url(#arrow-purple)"/>
  <line x1="1055" y1="510" x2="1055" y2="530" stroke="#7d3c98" stroke-width="1.8" marker-end="url(#arrow-purple)"/>
  <line x1="1055" y1="570" x2="1055" y2="575" stroke="#7d3c98" stroke-width="1.8" marker-end="url(#arrow-purple)"/>
  <!-- No → volver a codificación -->
  <line x1="1055" y1="615" x2="1055" y2="650" stroke="#7d3c98" stroke-width="1.5" stroke-dasharray="4,3"/>
  <line x1="1055" y1="650" x2="700" y2="650" stroke="#7d3c98" stroke-width="1.5" stroke-dasharray="4,3"/>
  <line x1="700" y1="650" x2="700" y2="175" stroke="#7d3c98" stroke-width="1.5" stroke-dasharray="4,3" marker-end="url(#arrow-purple)"/>
  <text x="870" y="645" text-anchor="middle" fill="#7d3c98" font-size="8">No → corregir</text>

  <!-- ═══════════════════════════════════════════════════════════════
       FASE 6: CIERRE
  ════════════════════════════════════════════════════════════════ -->
  <text x="1280" y="76" text-anchor="middle" fill="#1a3a5c" font-size="10" font-weight="bold">CIERRE</text>

  <!-- Task: Merge a main -->
  <rect x="1190" y="680" width="115" height="40" rx="8" fill="white" stroke="#c0392b" stroke-width="2"/>
  <text x="1247" y="697" text-anchor="middle" fill="#c0392b" font-size="9" font-weight="bold">Merge develop</text>
  <text x="1247" y="711" text-anchor="middle" fill="#c0392b" font-size="8">→ main</text>

  <!-- Task: Documentar resultados -->
  <rect x="1190" y="135" width="115" height="40" rx="8" fill="white" stroke="#1a3a5c" stroke-width="2"/>
  <text x="1247" y="152" text-anchor="middle" fill="#1a3a5c" font-size="9" font-weight="bold">Documentar</text>
  <text x="1247" y="166" text-anchor="middle" fill="#1a3a5c" font-size="8">resultados</text>

  <!-- Task: Retrospectiva -->
  <rect x="1190" y="470" width="115" height="40" rx="8" fill="white" stroke="#7d3c98" stroke-width="2"/>
  <text x="1247" y="487" text-anchor="middle" fill="#7d3c98" font-size="9" font-weight="bold">Retrospectiva</text>
  <text x="1247" y="501" text-anchor="middle" fill="#7d3c98" font-size="8">del proceso</text>

  <!-- End Event -->
  <circle cx="1340" cy="155" r="18" fill="white" stroke="#1a3a5c" stroke-width="3"/>
  <circle cx="1340" cy="155" r="12" fill="#1a3a5c"/>
  <circle cx="1340" cy="155" r="7" fill="white"/>
  <text x="1340" y="192" text-anchor="middle" fill="#1a3a5c" font-size="9">Fin</text>

  <!-- Arrows cierre -->
  <!-- Pruebas OK → sí → documentar -->
  <line x1="1095" y1="595" x2="1247" y2="595" stroke="#1a3a5c" stroke-width="1.8"/>
  <line x1="1247" y1="595" x2="1247" y2="175" stroke="#1a3a5c" stroke-width="1.8" marker-end="url(#arrow-blue)"/>
  <text x="1150" y="588" text-anchor="middle" fill="#1a3a5c" font-size="8">Sí</text>
  <line x1="1305" y1="155" x2="1322" y2="155" stroke="#1a3a5c" stroke-width="1.8" marker-end="url(#arrow-blue)"/>
  <!-- Documentar → Retrospectiva (cross-lane) -->
  <line x1="1247" y1="450" x2="1247" y2="470" stroke="#7d3c98" stroke-width="1.5" marker-end="url(#arrow-purple)"/>
  <!-- Retrospectiva → Merge -->
  <line x1="1247" y1="645" x2="1247" y2="680" stroke="#c0392b" stroke-width="1.5" marker-end="url(#arrow-red)"/>

  <!-- Gateway → No features → End (loop back) -->
  <line x1="480" y1="175" x2="480" y2="220" stroke="#1a3a5c" stroke-width="1.5" stroke-dasharray="4,3"/>
  <line x1="480" y1="220" x2="1340" y2="220" stroke="#1a3a5c" stroke-width="1.5" stroke-dasharray="4,3"/>
  <line x1="1340" y1="220" x2="1340" y2="137" stroke="#1a3a5c" stroke-width="1.5" stroke-dasharray="4,3" marker-end="url(#arrow-blue)"/>
  <text x="880" y="215" text-anchor="middle" fill="#666" font-size="8">No (todas las features completas)</text>

  <!-- ═══════════════════════════════════════════════════════════════
       LEYENDA
  ════════════════════════════════════════════════════════════════ -->
  <rect x="80" y="800" width="400" height="35" fill="white" stroke="#ccc" stroke-width="1" rx="4"/>
  <text x="90" y="813" fill="#555" font-size="9" font-weight="bold">LEYENDA:</text>
  <rect x="145" y="804" width="20" height="12" rx="3" fill="white" stroke="#1a3a5c" stroke-width="2"/>
  <text x="170" y="814" fill="#1a3a5c" font-size="9">Tarea equipo</text>
  <rect x="245" y="804" width="20" height="12" rx="3" fill="white" stroke="#0e6655" stroke-width="2"/>
  <text x="270" y="814" fill="#0e6655" font-size="9">Tarea IA</text>
  <rect x="320" y="804" width="20" height="12" rx="3" fill="white" stroke="#7d3c98" stroke-width="2"/>
  <text x="345" y="814" fill="#7d3c98" font-size="9">Pruebas / QA</text>
  <rect x="415" y="804" width="20" height="12" rx="3" fill="white" stroke="#c0392b" stroke-width="2"/>
  <text x="440" y="814" fill="#c0392b" font-size="9">Repositorio</text>
  <polygon points="160,821 170,813 180,821 170,829" fill="white" stroke="#1a3a5c" stroke-width="1.5"/>
  <text x="185" y="829" fill="#555" font-size="9">Gateway (decisión)</text>

  <!-- PRACTICE ÁGIL Badge -->
  <rect x="900" y="800" width="200" height="35" fill="#fff3cd" stroke="#f0ad4e" stroke-width="1.5" rx="4"/>
  <text x="1000" y="813" text-anchor="middle" fill="#856404" font-size="9" font-weight="bold">⚡ Práctica Ágil Adicional:</text>
  <text x="1000" y="827" text-anchor="middle" fill="#856404" font-size="9">Code Review vía Pull Requests</text>

  <!-- REFACTORING Badge -->
  <rect x="1115" y="800" width="160" height="35" fill="#d4edda" stroke="#28a745" stroke-width="1.5" rx="4"/>
  <text x="1195" y="813" text-anchor="middle" fill="#155724" font-size="9" font-weight="bold">🔧 Refactorización:</text>
  <text x="1195" y="827" text-anchor="middle" fill="#155724" font-size="9">branch dedicado</text>

  <!-- Arrow markers -->
  <defs>
    <marker id="arrow-blue" markerWidth="8" markerHeight="8" refX="6" refY="3" orient="auto">
      <path d="M0,0 L0,6 L8,3 z" fill="#1a3a5c"/>
    </marker>
    <marker id="arrow-green" markerWidth="8" markerHeight="8" refX="6" refY="3" orient="auto">
      <path d="M0,0 L0,6 L8,3 z" fill="#0e6655"/>
    </marker>
    <marker id="arrow-red" markerWidth="8" markerHeight="8" refX="6" refY="3" orient="auto">
      <path d="M0,0 L0,6 L8,3 z" fill="#c0392b"/>
    </marker>
    <marker id="arrow-purple" markerWidth="8" markerHeight="8" refX="6" refY="3" orient="auto">
      <path d="M0,0 L0,6 L8,3 z" fill="#7d3c98"/>
    </marker>
  </defs>

</svg>
