<?xml version="1.0" encoding="UTF-8"?>
<svg xmlns="http://www.w3.org/2000/svg" width="1500" height="720"
     viewBox="0 0 1500 720" font-family="Segoe UI, Arial, sans-serif"
     style="background:#f4f6fb">

<defs>
  <marker id="a1" markerWidth="8" markerHeight="8" refX="7" refY="3" orient="auto"><path d="M0,0 L0,6 L8,3z" fill="#1a3a5c"/></marker>
  <marker id="a3" markerWidth="8" markerHeight="8" refX="7" refY="3" orient="auto"><path d="M0,0 L0,6 L8,3z" fill="#7d3c98"/></marker>
  <marker id="a4" markerWidth="8" markerHeight="8" refX="7" refY="3" orient="auto"><path d="M0,0 L0,6 L8,3z" fill="#c0392b"/></marker>
</defs>

<!-- ── TITLE BAR ─────────────────────────────────────────────────── -->
<rect x="0" y="0" width="1500" height="52" fill="#1a3a5c" rx="6"/>
<text x="750" y="33" text-anchor="middle" fill="white" font-size="17" font-weight="bold">
  DIAGRAMA BPMN — Proceso de Desarrollo ChatBot Médico (2026-1)
</text>

<!-- ── POOL OUTER BORDER ──────────────────────────────────────────── -->
<rect x="12" y="56" width="1476" height="610" fill="none" stroke="#1a3a5c" stroke-width="2.5" rx="5"/>

<!-- ═══════════════════════════════════════════════════════════════
     LANE BACKGROUNDS
     Lane 1: EQUIPO DESARROLLO  y=56..256   (200px)
     Lane 2: QA / PRUEBAS       y=256..456  (200px)
     Lane 3: REPOSITORIO GITHUB y=456..666  (210px)
════════════════════════════════════════════════════════════════ -->

<!-- Lane 1 -->
<rect x="12"  y="56"  width="80" height="200" fill="#1a3a5c"/>
<rect x="92"  y="56"  width="1396" height="200" fill="#e8f0fb" stroke="#1a3a5c" stroke-width="1.5"/>

<!-- Lane 2 -->
<rect x="12"  y="256" width="80" height="200" fill="#7d3c98"/>
<rect x="92"  y="256" width="1396" height="200" fill="#f5eef8" stroke="#7d3c98" stroke-width="1.5"/>

<!-- Lane 3 -->
<rect x="12"  y="456" width="80" height="210" fill="#c0392b"/>
<rect x="92"  y="456" width="1396" height="210" fill="#fdf2f0" stroke="#c0392b" stroke-width="1.5"/>

<!-- ── LANE LABELS
     translate(center_x_strip=52, center_y_lane) rotate(-90)
     Lane 1 center_y = 56+100 = 156
     Lane 2 center_y = 256+100 = 356
     Lane 3 center_y = 456+105 = 561
───────────────────────────────────────────────────────────────── -->
<text transform="translate(52,156) rotate(-90)" text-anchor="middle"
      fill="white" font-size="12" font-weight="bold">EQUIPO DESARROLLO</text>
<text transform="translate(52,356) rotate(-90)" text-anchor="middle"
      fill="white" font-size="12" font-weight="bold">QA / PRUEBAS</text>
<text transform="translate(52,561) rotate(-90)" text-anchor="middle"
      fill="white" font-size="12" font-weight="bold">REPOSITORIO GITHUB</text>

<!-- Sub-headers -->
<text x="110" y="74"  fill="#1a3a5c" font-size="9.5" font-weight="bold">Ernesto Guevara / John Morales / Diana Henao</text>
<text x="110" y="274" fill="#7d3c98" font-size="9.5" font-weight="bold">Diana Henao (QA)</text>
<text x="110" y="474" fill="#c0392b" font-size="9.5" font-weight="bold">GitHub / GitHub Projects</text>

<!-- ═══════════════════════════════════════════════════════════════
     PHASE SEPARATOR LINES + HEADERS
     Phases: | 92 | 315 | 540 | 900 | 1090 | 1310 | 1488 |
════════════════════════════════════════════════════════════════ -->
<line x1="315"  y1="56" x2="315"  y2="666" stroke="#aaa" stroke-width="1" stroke-dasharray="5,3"/>
<line x1="540"  y1="56" x2="540"  y2="666" stroke="#aaa" stroke-width="1" stroke-dasharray="5,3"/>
<line x1="900"  y1="56" x2="900"  y2="666" stroke="#aaa" stroke-width="1" stroke-dasharray="5,3"/>
<line x1="1090" y1="56" x2="1090" y2="666" stroke="#aaa" stroke-width="1" stroke-dasharray="5,3"/>
<line x1="1310" y1="56" x2="1310" y2="666" stroke="#aaa" stroke-width="1" stroke-dasharray="5,3"/>

<text x="200"  y="70" text-anchor="middle" fill="#1a3a5c" font-size="10" font-weight="bold">PLANEACIÓN</text>
<text x="425"  y="70" text-anchor="middle" fill="#1a3a5c" font-size="10" font-weight="bold">ANÁLISIS Y DISEÑO</text>
<text x="715"  y="70" text-anchor="middle" fill="#1a3a5c" font-size="10" font-weight="bold">CODIFICACIÓN (Feature Branches)</text>
<text x="992"  y="70" text-anchor="middle" fill="#1a3a5c" font-size="10" font-weight="bold">REFACTORIZACIÓN</text>
<text x="1198" y="70" text-anchor="middle" fill="#1a3a5c" font-size="10" font-weight="bold">PRUEBAS</text>
<text x="1400" y="70" text-anchor="middle" fill="#1a3a5c" font-size="10" font-weight="bold">CIERRE</text>

<!-- ═══════════════════════════════════════════════════════════════
     LANE 1 — EQUIPO DESARROLLO  (y center = 156)
════════════════════════════════════════════════════════════════ -->

<!-- Start event -->
<circle cx="120" cy="156" r="16" fill="white" stroke="#1a3a5c" stroke-width="3"/>
<circle cx="120" cy="156" r="10" fill="#1a3a5c"/>
<text x="120" y="190" text-anchor="middle" fill="#1a3a5c" font-size="9">Inicio</text>

<!-- Task: Definir requisitos -->
<rect x="150" y="136" width="140" height="40" rx="7" fill="white" stroke="#1a3a5c" stroke-width="2"/>
<text x="220" y="153" text-anchor="middle" fill="#1a3a5c" font-size="9" font-weight="bold">Definir requisitos</text>
<text x="220" y="167" text-anchor="middle" fill="#444" font-size="8">(Product Backlog)</text>

<!-- Task: Diseñar arquitectura -->
<rect x="340" y="136" width="160" height="40" rx="7" fill="white" stroke="#1a3a5c" stroke-width="2"/>
<text x="420" y="153" text-anchor="middle" fill="#1a3a5c" font-size="9" font-weight="bold">Diseñar arquitectura</text>
<text x="420" y="167" text-anchor="middle" fill="#444" font-size="8">y flujo del chatbot</text>

<!-- Gateway: ¿Features pendientes? -->
<polygon points="580,156 602,134 624,156 602,178" fill="white" stroke="#1a3a5c" stroke-width="2.2"/>
<text x="602" y="160" text-anchor="middle" fill="#1a3a5c" font-size="10">✕</text>
<text x="602" y="198" text-anchor="middle" fill="#1a3a5c" font-size="8">¿Features</text>
<text x="602" y="209" text-anchor="middle" fill="#1a3a5c" font-size="8">pendientes?</text>

<!-- Task: Crear feature branch -->
<rect x="640" y="136" width="130" height="40" rx="7" fill="white" stroke="#1a3a5c" stroke-width="2"/>
<text x="705" y="153" text-anchor="middle" fill="#1a3a5c" font-size="9" font-weight="bold">Crear feature</text>
<text x="705" y="167" text-anchor="middle" fill="#444" font-size="8">branch</text>

<!-- Task: Implementar feature -->
<rect x="790" y="136" width="130" height="40" rx="7" fill="white" stroke="#1a3a5c" stroke-width="2"/>
<text x="855" y="153" text-anchor="middle" fill="#1a3a5c" font-size="9" font-weight="bold">Implementar</text>
<text x="855" y="167" text-anchor="middle" fill="#444" font-size="8">feature</text>

<!-- Task: Identificar y refactorizar -->
<rect x="920" y="136" width="148" height="40" rx="7" fill="white" stroke="#e67e22" stroke-width="2"/>
<text x="994" y="153" text-anchor="middle" fill="#e67e22" font-size="9" font-weight="bold">Identificar código</text>
<text x="994" y="167" text-anchor="middle" fill="#444" font-size="8">y refactorizar</text>

<!-- Task: Documentar resultados -->
<rect x="1320" y="136" width="148" height="40" rx="7" fill="white" stroke="#1a3a5c" stroke-width="2"/>
<text x="1394" y="153" text-anchor="middle" fill="#1a3a5c" font-size="9" font-weight="bold">Documentar</text>
<text x="1394" y="167" text-anchor="middle" fill="#444" font-size="8">resultados</text>

<!-- End event -->
<circle cx="1460" cy="156" r="16" fill="white" stroke="#1a3a5c" stroke-width="3"/>
<circle cx="1460" cy="156" r="10" fill="white" stroke="#1a3a5c" stroke-width="2.5"/>
<circle cx="1460" cy="156" r="5"  fill="#1a3a5c"/>
<text x="1460" y="190" text-anchor="middle" fill="#1a3a5c" font-size="9">Fin</text>

<!-- ── Lane 1 Arrows ───────────────────────────────────────────── -->
<line x1="136" y1="156" x2="150" y2="156" stroke="#1a3a5c" stroke-width="1.8" marker-end="url(#a1)"/>
<line x1="290" y1="156" x2="340" y2="156" stroke="#1a3a5c" stroke-width="1.8" marker-end="url(#a1)"/>
<line x1="500" y1="156" x2="580" y2="156" stroke="#1a3a5c" stroke-width="1.8" marker-end="url(#a1)"/>
<line x1="624" y1="156" x2="640" y2="156" stroke="#1a3a5c" stroke-width="1.8" marker-end="url(#a1)"/>
<text x="634" y="150" fill="#0e6655" font-size="8">Sí</text>
<line x1="770" y1="156" x2="790" y2="156" stroke="#1a3a5c" stroke-width="1.8" marker-end="url(#a1)"/>
<!-- Implementar → Refactorizar (arco superior) -->
<line x1="855" y1="136" x2="855" y2="118" stroke="#1a3a5c" stroke-width="1.5"/>
<line x1="855" y1="118" x2="994" y2="118" stroke="#1a3a5c" stroke-width="1.5"/>
<line x1="994" y1="118" x2="994" y2="136" stroke="#1a3a5c" stroke-width="1.5" marker-end="url(#a1)"/>
<!-- Refactorizar → Documentar (conexión directa luego de Pruebas OK) -->
<!-- (flecha llegará desde gateway pruebas) -->
<line x1="1468" y1="156" x2="1444" y2="156" stroke="#1a3a5c" stroke-width="1.8" marker-end="url(#a1)"/>

<!-- Gateway No → saltar al cierre -->
<line x1="602" y1="178" x2="602" y2="228" stroke="#1a3a5c" stroke-width="1.5" stroke-dasharray="4,3"/>
<line x1="602" y1="228" x2="1394" y2="228" stroke="#1a3a5c" stroke-width="1.5" stroke-dasharray="4,3"/>
<line x1="1394" y1="228" x2="1394" y2="176" stroke="#1a3a5c" stroke-width="1.5" stroke-dasharray="4,3" marker-end="url(#a1)"/>
<text x="976" y="222" text-anchor="middle" fill="#666" font-size="8">No — todas las features completas</text>

<!-- ═══════════════════════════════════════════════════════════════
     LANE 2 — QA / PRUEBAS  (y center = 356)
════════════════════════════════════════════════════════════════ -->

<!-- Task: Escribir pruebas unitarias -->
<rect x="1110" y="316" width="148" height="40" rx="7" fill="white" stroke="#7d3c98" stroke-width="2"/>
<text x="1184" y="333" text-anchor="middle" fill="#7d3c98" font-size="9" font-weight="bold">Escribir pruebas</text>
<text x="1184" y="347" text-anchor="middle" fill="#444" font-size="8">unitarias (Vitest)</text>

<!-- Task: Ejecutar y validar -->
<rect x="1110" y="373" width="148" height="40" rx="7" fill="white" stroke="#7d3c98" stroke-width="2"/>
<text x="1184" y="390" text-anchor="middle" fill="#7d3c98" font-size="9" font-weight="bold">Ejecutar y validar</text>
<text x="1184" y="404" text-anchor="middle" fill="#444" font-size="8">resultados</text>

<!-- Gateway: ¿Pruebas OK? -->
<polygon points="1280,430 1302,408 1324,430 1302,452" fill="white" stroke="#7d3c98" stroke-width="2.2"/>
<text x="1302" y="434" text-anchor="middle" fill="#7d3c98" font-size="10">✕</text>
<text x="1302" y="472" text-anchor="middle" fill="#7d3c98" font-size="8">¿Pruebas</text>
<text x="1302" y="483" text-anchor="middle" fill="#7d3c98" font-size="8">OK?</text>

<!-- Task: Retrospectiva -->
<rect x="1320" y="316" width="148" height="40" rx="7" fill="white" stroke="#7d3c98" stroke-width="2"/>
<text x="1394" y="333" text-anchor="middle" fill="#7d3c98" font-size="9" font-weight="bold">Retrospectiva</text>
<text x="1394" y="347" text-anchor="middle" fill="#444" font-size="8">del proceso</text>

<!-- Lane 2 connector from Refactorizar (lane 1) -->
<line x1="1068" y1="156" x2="1184" y2="156" stroke="#1a3a5c" stroke-width="1.8"/>
<line x1="1184" y1="156" x2="1184" y2="316" stroke="#7d3c98" stroke-width="1.8" marker-end="url(#a3)"/>

<!-- Lane 2 arrows -->
<line x1="1184" y1="356" x2="1184" y2="373" stroke="#7d3c98" stroke-width="1.8" marker-end="url(#a3)"/>
<line x1="1184" y1="413" x2="1184" y2="423" stroke="#7d3c98" stroke-width="1.8"/>
<line x1="1184" y1="423" x2="1280" y2="430" stroke="#7d3c98" stroke-width="1.8" marker-end="url(#a3)"/>

<!-- Sí → Documentar (sube a lane 1) -->
<line x1="1324" y1="430" x2="1370" y2="430" stroke="#7d3c98" stroke-width="1.5"/>
<line x1="1370" y1="430" x2="1370" y2="176" stroke="#1a3a5c" stroke-width="1.5" marker-end="url(#a1)"/>
<text x="1340" y="425" fill="#0e6655" font-size="8">Sí</text>

<!-- No → volver a implementar -->
<line x1="1302" y1="452" x2="1302" y2="490" stroke="#7d3c98" stroke-width="1.5" stroke-dasharray="4,3"/>
<line x1="1302" y1="490" x2="855"  y2="490" stroke="#7d3c98" stroke-width="1.5" stroke-dasharray="4,3"/>
<line x1="855"  y1="490" x2="855"  y2="176" stroke="#7d3c98" stroke-width="1.5" stroke-dasharray="4,3" marker-end="url(#a1)"/>
<text x="1074" y="484" text-anchor="middle" fill="#c0392b" font-size="8">No → corregir e implementar de nuevo</text>

<!-- Retrospectiva ← de Documentar (baja desde lane 1) -->
<line x1="1394" y1="256" x2="1394" y2="316" stroke="#7d3c98" stroke-width="1.5" stroke-dasharray="5,3" marker-end="url(#a3)"/>

<!-- ═══════════════════════════════════════════════════════════════
     LANE 3 — REPOSITORIO GITHUB  (y center = 561)
════════════════════════════════════════════════════════════════ -->

<!-- Task: Crear repositorio + Kanban -->
<rect x="150" y="541" width="148" height="40" rx="7" fill="white" stroke="#c0392b" stroke-width="2"/>
<text x="224" y="558" text-anchor="middle" fill="#c0392b" font-size="9" font-weight="bold">Crear repositorio</text>
<text x="224" y="572" text-anchor="middle" fill="#444" font-size="8">+ tablero Kanban</text>

<!-- Task: Commits al branch -->
<rect x="640" y="541" width="130" height="40" rx="7" fill="white" stroke="#c0392b" stroke-width="2"/>
<text x="705" y="558" text-anchor="middle" fill="#c0392b" font-size="9" font-weight="bold">Commits al</text>
<text x="705" y="572" text-anchor="middle" fill="#444" font-size="8">feature branch</text>

<!-- Task: Crear Pull Request -->
<rect x="790" y="541" width="130" height="40" rx="7" fill="white" stroke="#c0392b" stroke-width="2"/>
<text x="855" y="558" text-anchor="middle" fill="#c0392b" font-size="9" font-weight="bold">Crear Pull Request</text>
<text x="855" y="572" text-anchor="middle" fill="#444" font-size="8">→ develop</text>

<!-- Task: Merge develop → main -->
<rect x="1320" y="541" width="148" height="40" rx="7" fill="white" stroke="#c0392b" stroke-width="2"/>
<text x="1394" y="558" text-anchor="middle" fill="#c0392b" font-size="9" font-weight="bold">Merge develop</text>
<text x="1394" y="572" text-anchor="middle" fill="#444" font-size="8">→ main</text>

<!-- Lane 3 connectors (dashed from lane 1) -->
<line x1="224"  y1="256" x2="224"  y2="541" stroke="#c0392b" stroke-width="1.4" stroke-dasharray="5,3" marker-end="url(#a4)"/>
<line x1="705"  y1="256" x2="705"  y2="541" stroke="#c0392b" stroke-width="1.4" stroke-dasharray="5,3" marker-end="url(#a4)"/>
<line x1="855"  y1="256" x2="855"  y2="541" stroke="#c0392b" stroke-width="1.4" stroke-dasharray="5,3" marker-end="url(#a4)"/>
<line x1="1394" y1="456" x2="1394" y2="541" stroke="#c0392b" stroke-width="1.4" stroke-dasharray="5,3" marker-end="url(#a4)"/>

<!-- ═══════════════════════════════════════════════════════════════
     LEGEND + BADGES
════════════════════════════════════════════════════════════════ -->
<rect x="92" y="676" width="430" height="38" fill="white" stroke="#ccc" stroke-width="1" rx="4"/>
<text x="105" y="692" fill="#333" font-size="9.5" font-weight="bold">LEYENDA:</text>
<rect x="172" y="682" width="16" height="11" rx="3" fill="white" stroke="#1a3a5c" stroke-width="2"/>
<text x="193" y="692" fill="#1a3a5c" font-size="9">Tarea equipo</text>
<rect x="285" y="682" width="16" height="11" rx="3" fill="white" stroke="#7d3c98" stroke-width="2"/>
<text x="306" y="692" fill="#7d3c98" font-size="9">QA / Pruebas</text>
<rect x="390" y="682" width="16" height="11" rx="3" fill="white" stroke="#c0392b" stroke-width="2"/>
<text x="411" y="692" fill="#c0392b" font-size="9">Repositorio</text>
<polygon points="174,705 184,695 194,705 184,715" fill="white" stroke="#1a3a5c" stroke-width="1.5"/>
<text x="200" y="709" fill="#555" font-size="9">Gateway (decisión)</text>
<line x1="300" y1="705" x2="330" y2="705" stroke="#1a3a5c" stroke-width="1.4" stroke-dasharray="4,3" marker-end="url(#a1)"/>
<text x="336" y="709" fill="#555" font-size="9">Flujo de retorno</text>

<!-- Badge: Práctica ágil -->
<rect x="545" y="676" width="260" height="38" fill="#fff3cd" stroke="#f0ad4e" stroke-width="1.5" rx="4"/>
<text x="675" y="693" text-anchor="middle" fill="#856404" font-size="9.5" font-weight="bold">⚡ Práctica Ágil Adicional:</text>
<text x="675" y="707" text-anchor="middle" fill="#856404" font-size="9">Code Review vía Pull Requests (GitHub)</text>

<!-- Badge: Refactorización -->
<rect x="830" y="676" width="240" height="38" fill="#d4edda" stroke="#28a745" stroke-width="1.5" rx="4"/>
<text x="950" y="693" text-anchor="middle" fill="#155724" font-size="9.5" font-weight="bold">🔧 Refactorización:</text>
<text x="950" y="707" text-anchor="middle" fill="#155724" font-size="9">Branch dedicado + revisión en equipo</text>

<!-- Badge: IA (uso controlado, como nota informativa) -->
<rect x="1100" y="676" width="280" height="38" fill="#e8f0fb" stroke="#1a3a5c" stroke-width="1.5" rx="4"/>
<text x="1240" y="693" text-anchor="middle" fill="#1a3a5c" font-size="9.5" font-weight="bold">🤖 Uso de IA (controlado):</text>
<text x="1240" y="707" text-anchor="middle" fill="#1a3a5c" font-size="9">Claude Code — revisión humana obligatoria</text>

</svg>
